<svg version="1.1" xmlns="http://www.w3.org/2000/svg" width="1054" height="1024" viewBox="0 0 1054 1024">
<path fill="#1991eb" d="M544.245 917.629c-4.626-5.782-9.252-2.313-9.252-5.782-27.755 6.939-79.795-11.564-101.768-9.252 4.626-6.939-6.939-5.782-6.939-10.408-4.626 6.939-9.252 0-16.19 2.313-6.939-17.347-34.693-4.626-38.163-26.598-16.19 0-21.973-9.252-38.163-18.503 1.156-1.156 2.313-1.156 3.469-2.313-8.095-1.156-8.095-5.782-15.034-5.782l2.313-4.626c-12.721-2.313-17.347-21.973-35.85-28.911-5.782-1.156-18.503-20.816-25.442-25.442-3.469-2.313-9.252-2.313-1.156-3.469-1.156-1.156-1.156-3.469 0-4.626-8.095-2.313-9.252-9.252-19.66-12.721-1.156-3.469 2.313-5.782 0-8.095-2.313-1.156-5.782 1.156-8.095 0-1.156 20.816 21.973 23.129 28.911 40.476-2.313-2.313-5.782-9.252-8.095-4.626-1.156 3.469 9.252 16.19 9.252 9.252-3.469 2.313-4.626-3.469-2.313-4.626 3.469 5.782 10.408 4.626 10.408 9.252-3.469 3.469-8.095-3.469-6.939 2.313 10.408 5.782 9.252 11.564 15.034 19.66-4.626-5.782-5.782 4.626-10.408 0-1.156-17.347-20.816-13.877-20.816-31.224-2.313-5.782-4.626-1.156-8.095-3.469 4.626-4.626-13.877-20.816-13.877-15.034-5.782-6.939-2.313-9.252-3.469-13.877-4.626-1.156-1.156 4.626-4.626 1.156 4.626-8.095-5.782-18.503-12.721-26.598l4.626-2.313c-8.095-4.626-9.252-13.877-15.034-24.285-6.939 10.408 13.877 33.537 10.408 38.163 0 1.156 8.095 10.408 10.408 15.034 9.252 16.19 16.19 35.85 28.911 45.102-2.313-1.156-1.156-8.095 2.313-4.626 0 3.469-2.313 6.939-2.313 10.408 6.939 6.939 12.721 12.721 19.66 19.66-15.034-9.252-30.068-18.503-40.476-32.381 5.782-1.156 11.564 9.252 16.19 8.095-11.564-9.252-8.095-12.721-12.721-24.285-4.626-3.469 1.156 4.626-3.469 5.782-15.034-13.877-26.598-21.973-33.537-34.693 1.156-1.156 2.313-2.313 2.313-4.626-1.156-1.156-1.156-1.156-2.313-2.313 6.939 6.939 9.252 12.721 17.347 13.877-3.469-3.469 0-4.626-4.626-8.095-2.313-4.626-5.782 2.313-8.095-1.156 2.313-3.469 0-8.095 0-11.564-2.313 0-4.626 0-5.782-3.469-2.313-1.156-3.469 0-4.626 2.313-1.156-1.156-1.156-3.469-2.313-4.626 0 0 0-1.156 0-1.156-1.156-1.156-2.313-3.469-3.469-4.626-9.252-24.285-15.034-56.666-27.755-77.482 3.469-13.877-2.313-41.632-5.782-48.571 3.469-5.782 1.156-32.381-1.156-37.006-5.782 2.313 1.156 15.034-4.626 18.503-5.782-25.442 3.469-54.353 1.156-77.482 2.313 0 4.626 0 4.626-1.156-3.469-3.469 2.313-10.408 1.156-18.503 4.626-10.408-10.408 15.034-10.408 25.442-1.156 2.313-5.782 0-4.626 5.782 0 8.095 2.313 24.285-2.313 35.85-2.313 0-2.313-2.313-4.626-1.156-1.156 5.782-2.313 12.721-3.469 18.503-1.156-2.313-2.313-5.782-2.313-6.939-5.782-28.911 0-62.448-2.313-86.734 4.626 0 4.626-6.939 8.095-9.252-1.156 9.252-3.469 20.816 2.313 23.129 4.626-45.102 13.877-94.829 34.693-143.4 15.034-35.85 37.006-71.7 63.605-100.611 2.313 3.469-1.156 11.564 0 15.034 23.129-24.285 38.163-53.197 63.605-69.387 1.156 5.782-10.408 10.408-10.408 15.034 10.408-10.408 13.877-6.939 25.442-10.408 3.469-4.626-4.626 0-5.782-4.626 6.939-4.626 11.564-10.408 16.19-13.877 0 1.156-1.156 1.156-1.156 2.313 12.721-3.469 13.877-10.408 23.129-12.721-1.156-1.156-3.469-2.313-6.939-1.156 2.313-1.156 5.782-3.469 9.252-4.626-1.156 0-1.156 1.156-2.313 1.156 6.939-3.469 1.156 1.156 1.156 3.469 1.156 0 2.313-1.156 2.313-1.156-6.939 4.626-11.564 6.939-13.877 15.034 3.469-2.313 4.626 0 9.252-3.469 4.626-2.313-1.156-5.782 2.313-8.095 3.469 2.313 8.095 1.156 11.564 1.156 0-2.313 1.156-4.626 3.469-5.782 1.156-2.313 0-3.469-1.156-3.469 1.156-1.156 2.313-1.156 4.626-2.313 0 0 1.156 0 1.156 1.156 19.66-9.252 41.632-17.347 62.448-24.285 12.721-1.156 28.911-1.156 35.85-9.252-2.313 0-4.626 1.156-5.782 0 1.156 0 3.469-1.156 4.626-1.156 2.313 2.313 5.782 0 2.313 4.626 1.156 0 1.156 0 2.313-1.156 0 1.156 0 1.156 1.156 2.313 1.156 0 2.313-1.156 3.469-3.469 1.156 0 2.313 0 3.469-1.156 0 0-1.156 1.156-1.156 1.156 9.252-2.313 17.347-1.156 30.068-3.469 0-1.156 0-2.313 0-3.469 2.313 0 3.469-1.156 5.782-1.156 0 0 0 1.156 0 1.156 4.626-2.313 9.252 2.313 9.252 0 1.156 0 1.156 0 2.313 0 0 2.313-1.156 3.469-1.156 4.626 5.782 0 9.252 0 11.564-3.469-1.156-1.156-2.313-1.156-3.469-1.156 2.313 0 4.626-1.156 6.939-2.313 3.469 1.156 4.626 2.313 4.626 6.939 5.782-10.408 24.285 2.313 32.381 0 3.469 0 2.313-4.626 4.626-6.939 1.156 0 2.313 0 3.469 0 5.782 4.626 13.877 9.252 24.285 10.408-9.252-2.313 1.156-3.469 2.313-4.626-2.313 0-2.313-1.156-2.313-2.313 3.469 0 6.939 1.156 10.408 1.156 0 2.313 1.156 3.469 3.469 3.469s2.313-1.156 2.313-3.469c3.469 0 5.782 0 9.252 1.156-1.156 4.626 5.782 5.782 8.095 9.252-9.252-2.313-19.66-5.782-23.129 0 37.006 8.095 77.482 19.66 116.801 39.319 0 0 0 0 0 1.156 0 0 1.156 0 1.156 0 6.939 3.469 13.877 6.939 20.816 10.408 4.626 2.313 8.095 4.626 12.721 8.095 0 1.156 0 2.313 2.313 2.313 0 0 1.156 0 1.156 0 4.626 3.469 9.252 5.782 13.877 9.252 4.626 6.939 9.252 16.19 17.347 13.877 17.347 26.598 35.85 37.006 50.884 64.761 1.156-4.626 4.626 10.408 10.408 11.564-9.252-1.156 5.782 5.782-3.469 4.626 8.095 8.095 10.408 11.564 11.564 20.816-2.313-4.626-3.469-5.782-4.626-1.156-1.156 6.939 8.095-1.156 11.564 5.782-6.939 0-4.626 4.626-3.469 10.408 3.469-3.469 2.313-6.939 5.782-5.782 4.626 4.626-2.313 5.782-1.156 9.252 3.469-4.626 4.626-2.313 9.252 0-5.782 1.156 3.469 9.252-3.469 5.782 4.626 5.782 5.782 9.252 3.469 15.034-4.626-6.939-1.156-11.564-8.095-10.408 13.877 11.564 6.939 38.163 23.129 40.476-10.408 2.313 0 6.939-5.782 8.095 6.939 2.313 3.469 11.564 11.564 13.877-1.156 5.782-3.469 9.252-4.626 15.034 3.469 4.626 4.626 13.877 10.408 15.034-3.469 3.469-1.156 12.721-4.626 16.19 4.626-2.313 6.939-2.313 10.408 2.313-5.782 4.626-1.156 9.252-4.626 10.408 10.408 26.598-2.313 80.951 3.469 101.768-6.939-3.469-4.626 8.095-9.252 8.095 8.095 3.469 1.156 9.252 4.626 15.034-16.19 9.252 0 34.693-21.973 40.476 2.313 16.19-6.939 23.129-13.877 40.476-1.156-1.156-1.156-2.313-2.313-3.469-1.156 8.095-5.782 9.252-3.469 16.19l-4.626-2.313c0 12.721-19.66 19.66-24.285 39.319-1.156 5.782-18.503 20.816-23.129 28.911-2.313 3.469-1.156 9.252-3.469 1.156-1.156 1.156-3.469 1.156-4.626 1.156-1.156 8.095-8.095 10.408-10.408 20.816-2.313 1.156-5.782-2.313-8.095 1.156 0 2.313 2.313 5.782 1.156 8.095 20.816-1.156 20.816-25.442 37.006-33.537-1.156 3.469-8.095 6.939-3.469 9.252 3.469 0 13.877-11.564 8.095-10.408 3.469 2.313-3.469 4.626-4.626 3.469 5.782-4.626 3.469-10.408 8.095-11.564 3.469 2.313-3.469 8.095 3.469 6.939 4.626-10.408 10.408-11.564 17.347-17.347-4.626 4.626 5.782 5.782 1.156 10.408-17.347 3.469-11.564 23.129-28.911 25.442-4.626 3.469-1.156 4.626-2.313 8.095-5.782-3.469-18.503 16.19-13.877 15.034-5.782 5.782-9.252 3.469-13.877 4.626-1.156 4.626 4.626 1.156 2.313 4.626-8.095-3.469-18.503 8.095-25.442 16.19l-3.469-3.469c-3.469 9.252-12.721 10.408-23.129 17.347 11.564 5.782 31.224-18.503 37.006-15.034 1.156 0 10.408-9.252 13.877-12.721 15.034-11.564 33.537-20.816 40.476-33.537-1.156 2.313-8.095 2.313-4.626-1.156 3.469-1.156 6.939 1.156 10.408 1.156 18.503-25.442 41.632-46.258 58.979-76.326 1.156-1.156 2.313-3.469 3.469-5.782-2.313 6.939-5.782 12.721-8.095 19.66-18.503 12.721-25.442 49.727-47.414 55.51 1.156 12.721-10.408 16.19-16.19 31.224-3.469 4.626-5.782-3.469-9.252 2.313 3.469 16.19-28.911 15.034-27.755 30.068-2.313 1.156-5.782 2.313-8.095 4.626 0 0-1.156 0-1.156 0-1.156 1.156-1.156 1.156-2.313 2.313-5.782 3.469-10.408 6.939-15.034 10.408-16.19 9.252-38.163 16.19-55.51 25.442 0 0 0-1.156 0-1.156-4.626 2.313-10.408 1.156-9.252 5.782-3.469 2.313-6.939 4.626-10.408 6.939-1.156 0-1.156 0-2.313 0 0 0-1.156-1.156-2.313-1.156-2.313 0-2.313 0-3.469 1.156-15.034 1.156-34.693 8.095-40.476 12.721-5.782-3.469-32.381 2.313-37.006 4.626 2.313 3.469 9.252 0 15.034 0-3.469 1.156-6.939 2.313-8.095 4.626-1.156 0-1.156 0-2.313 0-1.156-3.469-4.626 0-5.782-1.156 0 0 1.156 0 1.156 0-1.156-4.626-4.626-6.939-10.408-5.782 0 2.313 0 3.469-1.156 5.782 2.313 0 9.252-3.469 9.252 0-1.156 0-1.156 1.156 0 1.156-2.313 2.313-5.782 2.313-8.095 3.469-4.626 0-10.408 0-15.034 0-1.156-1.156-2.313-1.156-4.626-2.313-1.156 1.156-3.469 1.156-4.626 2.313-6.939 0-15.034 1.156-20.816 2.313 0-2.313 0-4.626-2.313-4.626-3.469 4.626-10.408-1.156-18.503 1.156-8.095-2.313 4.626 3.469 16.19 5.782-1.156 1.156-2.313 2.313-5.782 3.469zM382.342 933.819c-16.19-15.034-49.727-21.973-55.51-33.537-9.252-1.156-23.129-18.503-34.693-20.816 5.782 0 1.156-3.469 0-5.782-2.313 2.313-4.626 3.469-6.939 3.469 0-9.252-9.252-15.034-17.347-20.816 5.782 3.469 10.408 5.782 17.347 6.939 0-2.313 0-4.626 2.313-4.626 8.095 8.095 17.347 16.19 27.755 24.285 13.877 12.721 85.577 45.102 98.298 50.884 0 0-2.313 4.626-1.156 4.626 5.782 3.469 10.408-3.469 11.564 4.626-18.503 2.313-25.442-10.408-41.632-9.252zM915.466 665.523c0 0 0 1.156 0 1.156s0 0 0 0c-1.156 0 0-1.156 0-1.156zM448.26 130.087c-1.156 1.156-2.313 1.156-2.313 1.156 0-1.156 1.156-1.156 2.313-1.156zM349.962 160.154c0 0 0 0 0 0 1.156-1.156 1.156-1.156 2.313-1.156-1.156 0-2.313 1.156-2.313 1.156zM534.994 121.991c-2.313 0-3.469 0-4.626-1.156 1.156 0 2.313 0 3.469 0 0 0 1.156 0 1.156 0s0 0 0 1.156zM555.81 124.304c-1.156-1.156-4.626-2.313-8.095-2.313 0-1.156 1.156-2.313 1.156-2.313 1.156 0 2.313 0 3.469 0 0 0 1.156 0 1.156 1.156 0 0 0 0 0-1.156 1.156 0 1.156 0 2.313 0 1.156 2.313 2.313 3.469 0 4.626zM593.973 127.774c-5.782 1.156-9.252-1.156-15.034-4.626 3.469 0 8.095 1.156 11.564 2.313 1.156 0 2.313 1.156 3.469 2.313zM1005.669 291.99c-2.313 1.156-3.469 1.156-5.782-3.469-18.503-39.319-52.040-95.985-100.611-143.4-47.414-48.571-111.019-87.89-168.842-108.706 3.469 1.156 8.095 3.469 5.782 5.782-50.884-19.66-99.455-31.224-145.713-35.85-124.897-19.66-255.575 6.939-356.187 71.7 1.156 2.313 1.156 3.469-2.313 5.782-37.006 23.129-89.047 63.605-130.679 116.801s-74.013 120.271-87.89 180.406c1.156-3.469 2.313-9.252 4.626-6.939-30.068 119.114-21.973 220.882 19.66 308.772 2.313-2.313-5.782-13.877 1.156-12.721 4.626 12.721 10.408 26.598 17.347 39.319 8.095 18.503 17.347 42.789 30.068 48.571-32.381-63.605-54.353-136.461-56.666-201.222 4.626 9.252 3.469 28.911 10.408 37.006 2.313-43.945-8.095-102.924 6.939-144.556-3.469 21.973-5.782 52.040-3.469 82.108 0 21.973 10.408 83.264 17.347 89.047-1.156-1.156-1.156-6.939 0-6.939 3.469 6.939-4.626 10.408 1.156 11.564 0-2.313 1.156-2.313 2.313-2.313 11.564 25.442 26.598 64.761 38.163 84.421 13.877 25.442 32.381 48.571 53.197 69.387 0 1.156 1.156 1.156 1.156 2.313 2.313 5.782 10.408 12.721 12.721 17.347 1.156 2.313-1.156 5.782 0 8.095 17.347 32.381 42.789 64.761 74.013 90.203 19.66 23.129 50.884 47.414 89.047 68.231 37.006 19.66 79.795 35.85 119.114 45.102 27.755 6.939 61.292 8.095 82.108 12.721 27.755 5.782 76.326-2.313 100.611-6.939 145.713-21.973 290.269-121.427 363.125-264.827 75.169-144.556 72.856-321.493 8.095-456.798z"></path>
</svg>
